<svg width="100" height="18" viewBox="0 0 100 18" fill="none" xmlns="http://www.w3.org/2000/svg">
<path d="M4.08178 17.2729V4.08178H0V0.42311H12.4444V4.08178H8.512V17.2729H4.08178Z" fill="#332E32"/>
<path d="M18.0198 17.5716C16.5928 17.5716 15.423 17.3476 14.5104 16.8996C13.5978 16.4516 12.9175 15.7381 12.4695 14.7591C12.0381 13.7801 11.8224 12.5108 11.8224 10.9511C11.8224 9.408 12.0464 8.16356 12.4944 7.21778C12.9424 6.272 13.6227 5.57511 14.5353 5.12711C15.4645 4.67911 16.626 4.45511 18.0198 4.45511C19.4135 4.45511 20.5667 4.67911 21.4793 5.12711C22.3919 5.57511 23.0722 6.272 23.5202 7.21778C23.9682 8.16356 24.1922 9.408 24.1922 10.9511C24.1922 12.5108 23.9765 13.7801 23.5451 14.7591C23.1137 15.7381 22.4417 16.4516 21.5291 16.8996C20.6165 17.3476 19.4467 17.5716 18.0198 17.5716ZM18.0198 14.0622C18.5341 14.0622 18.9157 13.9627 19.1646 13.7636C19.4301 13.5644 19.6126 13.2326 19.7122 12.768C19.8118 12.3034 19.8615 11.6978 19.8615 10.9511C19.8615 10.1879 19.8035 9.59052 19.6873 9.15911C19.5712 8.7277 19.3803 8.42074 19.1149 8.23822C18.866 8.03911 18.5009 7.93955 18.0198 7.93955C17.5386 7.93955 17.1652 8.03911 16.8997 8.23822C16.6343 8.42074 16.4435 8.736 16.3273 9.184C16.2112 9.61541 16.1531 10.2044 16.1531 10.9511C16.1531 11.6978 16.2029 12.3034 16.3024 12.768C16.402 13.2326 16.5845 13.5644 16.85 13.7636C17.1155 13.9627 17.5054 14.0622 18.0198 14.0622Z" fill="#332E32"/>
<path d="M25.9568 17.2729V0.42311H32.6768C34.054 0.42311 35.2237 0.597333 36.1861 0.945777C37.1485 1.29422 37.92 1.81689 38.5008 2.51378C39.0981 3.19407 39.5295 4.04859 39.795 5.07733C40.0605 6.08948 40.1932 7.25926 40.1932 8.58667C40.1932 9.93067 40.0688 11.1336 39.8199 12.1956C39.571 13.2575 39.1645 14.1701 38.6003 14.9333C38.0362 15.6966 37.2812 16.2773 36.3354 16.6756C35.3897 17.0738 34.2282 17.2729 32.851 17.2729H25.9568ZM30.387 13.6142H32.5274C33.2243 13.6142 33.7802 13.4898 34.195 13.2409C34.6264 12.992 34.95 12.6436 35.1657 12.1956C35.3814 11.7476 35.5224 11.2166 35.5888 10.6027C35.6551 9.98874 35.6883 9.31674 35.6883 8.58667C35.6883 7.88978 35.6469 7.26755 35.5639 6.72C35.4809 6.15585 35.3316 5.67467 35.1159 5.27644C34.9002 4.87822 34.5849 4.57955 34.1701 4.38044C33.7553 4.18133 33.2077 4.08178 32.5274 4.08178H30.387V13.6142Z" fill="#332E32"/>
<path d="M47.7941 17.5716C46.3671 17.5716 45.1973 17.3476 44.2847 16.8996C43.3721 16.4516 42.6918 15.7381 42.2438 14.7591C41.8124 13.7801 41.5967 12.5108 41.5967 10.9511C41.5967 9.408 41.8207 8.16356 42.2687 7.21778C42.7167 6.272 43.397 5.57511 44.3096 5.12711C45.2388 4.67911 46.4003 4.45511 47.7941 4.45511C49.1878 4.45511 50.341 4.67911 51.2536 5.12711C52.1662 5.57511 52.8465 6.272 53.2945 7.21778C53.7425 8.16356 53.9665 9.408 53.9665 10.9511C53.9665 12.5108 53.7508 13.7801 53.3194 14.7591C52.888 15.7381 52.216 16.4516 51.3034 16.8996C50.3908 17.3476 49.221 17.5716 47.7941 17.5716ZM47.7941 14.0622C48.3084 14.0622 48.6901 13.9627 48.9389 13.7636C49.2044 13.5644 49.3869 13.2326 49.4865 12.768C49.5861 12.3034 49.6358 11.6978 49.6358 10.9511C49.6358 10.1879 49.5778 9.59052 49.4616 9.15911C49.3455 8.7277 49.1546 8.42074 48.8892 8.23822C48.6403 8.03911 48.2752 7.93955 47.7941 7.93955C47.3129 7.93955 46.9395 8.03911 46.6741 8.23822C46.4086 8.42074 46.2178 8.736 46.1016 9.184C45.9855 9.61541 45.9274 10.2044 45.9274 10.9511C45.9274 11.6978 45.9772 12.3034 46.0767 12.768C46.1763 13.2326 46.3588 13.5644 46.6243 13.7636C46.8898 13.9627 47.2797 14.0622 47.7941 14.0622Z" fill="#332E32"/>
<path d="M61.2728 17.2729V0.42311H65.703V13.6142H71.8754V17.2729H61.2728Z" fill="#332E32"/>
<path d="M73.2282 17.2729V4.75378H77.4842V17.2729H73.2282ZM73.2033 3.26044V0H77.5091V3.26044H73.2033Z" fill="#332E32"/>
<path d="M84.5971 17.5716C83.9168 17.5716 83.2365 17.5384 82.5563 17.472C81.8925 17.4056 81.2786 17.331 80.7145 17.248C80.1669 17.1484 79.7189 17.0572 79.3705 16.9742L79.4949 13.9627C79.9263 14.0124 80.4158 14.0705 80.9634 14.1369C81.5275 14.2033 82.0751 14.2613 82.606 14.3111C83.1536 14.3443 83.6016 14.3609 83.95 14.3609C84.3317 14.3609 84.6386 14.336 84.8709 14.2862C85.1198 14.2364 85.3023 14.1452 85.4185 14.0124C85.5346 13.8797 85.5927 13.7055 85.5927 13.4898C85.5927 13.3073 85.5263 13.1662 85.3936 13.0667C85.2774 12.9671 85.0534 12.8759 84.7216 12.7929C84.3897 12.7099 83.9003 12.627 83.2531 12.544C82.324 12.4113 81.5607 12.2121 80.9634 11.9467C80.3826 11.6646 79.9512 11.2664 79.6691 10.752C79.4037 10.2376 79.2709 9.55733 79.2709 8.71111C79.2709 7.59941 79.5032 6.73659 79.9678 6.12267C80.4324 5.50874 81.0546 5.07733 81.8345 4.82844C82.6309 4.57955 83.5103 4.45511 84.4727 4.45511C85.1364 4.45511 85.7918 4.4883 86.4389 4.55467C87.1026 4.60444 87.7083 4.67911 88.2558 4.77867C88.82 4.86163 89.2762 4.94459 89.6247 5.02755L89.5003 8.13867C89.0688 8.08889 88.5711 8.03911 88.0069 7.98933C87.4428 7.92296 86.8952 7.87318 86.3643 7.84C85.8333 7.80681 85.3853 7.79022 85.0202 7.79022C84.7216 7.79022 84.4561 7.81511 84.2238 7.86489C84.0081 7.91467 83.8422 7.99763 83.726 8.11378C83.6099 8.21333 83.5518 8.36267 83.5518 8.56178C83.5518 8.71111 83.6016 8.83556 83.7011 8.93511C83.8173 9.03467 84.033 9.12593 84.3483 9.20889C84.6635 9.27526 85.1281 9.34993 85.742 9.43289C86.7542 9.56563 87.5672 9.77304 88.1811 10.0551C88.7951 10.3372 89.2348 10.7437 89.5003 11.2747C89.7657 11.789 89.8985 12.4859 89.8985 13.3653C89.8985 14.3941 89.6911 15.2154 89.2763 15.8293C88.878 16.4433 88.2807 16.8913 87.4843 17.1733C86.7044 17.4388 85.742 17.5716 84.5971 17.5716Z" fill="#332E32"/>
<path d="M96.2065 17.5716C95.2607 17.5716 94.4891 17.4471 93.8918 17.1982C93.2944 16.9327 92.863 16.4764 92.5976 15.8293C92.3321 15.1656 92.1993 14.2447 92.1993 13.0667V8.23822H90.9549V4.75378H92.1993V1.792H96.4802V4.75378H99.1682V8.23822H96.4802V12.0213C96.4802 12.5025 96.5051 12.8841 96.5549 13.1662C96.6047 13.4317 96.7125 13.6225 96.8784 13.7387C97.0444 13.8382 97.2933 13.888 97.6251 13.888C97.7081 13.888 97.8491 13.888 98.0482 13.888C98.2473 13.8714 98.4547 13.8631 98.6704 13.8631C98.8862 13.8465 99.0438 13.8299 99.1433 13.8133L99.218 17.1982C98.9525 17.248 98.629 17.2978 98.2473 17.3476C97.8823 17.4139 97.5173 17.4637 97.1522 17.4969C96.7872 17.5467 96.4719 17.5716 96.2065 17.5716Z" fill="#332E32"/>
</svg>
